<svg width="32" height="32" viewBox="0 0 32 32" fill="none" xmlns="http://www.w3.org/2000/svg">
<path d="M16.6645 7.27095L16.6649 7.27081L16.6595 7.25928C16.5912 7.1126 16.4892 6.99393 16.3521 6.91373C16.2164 6.83441 16.0587 6.8 15.8887 6.8C15.7193 6.8 15.5613 6.83413 15.4282 6.91614C15.2935 6.99919 15.1992 7.12228 15.1443 7.27296L8.38267 24.3734C8.33782 24.4529 8.33333 24.5452 8.33333 24.6073C8.33333 24.7821 8.39062 24.9452 8.53306 25.0578C8.66639 25.1633 8.84393 25.1996 9.03253 25.2H9.03292C9.19139 25.2 9.34152 25.1643 9.46698 25.0779C9.5918 24.9918 9.67533 24.8671 9.72152 24.7188L11.2255 20.8748H20.36L21.894 24.7507C21.8941 24.751 21.8942 24.7513 21.8943 24.7515C21.9487 24.8917 22.0373 25.0077 22.161 25.087C22.2838 25.1656 22.4277 25.1997 22.5801 25.1997C22.7799 25.1997 22.9626 25.1533 23.1226 25.0491C23.2879 24.944 23.4027 24.7921 23.4027 24.5886C23.4027 24.547 23.3928 24.5027 23.3809 24.4658L23.3811 24.4658L23.3778 24.457L23.3742 24.4477V24.4319L23.3605 24.3967L16.6645 7.27095ZM23.3742 24.4696V24.468C23.3742 24.4685 23.3742 24.469 23.3742 24.4696ZM11.7304 19.5944L15.8143 9.18397L19.8634 19.5944H11.7304Z" fill="#205549" stroke="#205549" stroke-width="0.4"/>
<path d="M1.57172 32C0.701154 32 0 31.337 0 30.5175V1.48217C0 0.662966 0.701154 0 1.57172 0C2.44559 0 3.14343 0.662966 3.14343 1.48217V30.5178C3.14343 31.337 2.44559 32 1.57172 32Z" fill="#205549"/>
<path d="M30.4318 32C29.558 32 28.8566 31.337 28.8566 30.5175V1.48217C28.8566 0.662966 29.558 0 30.4318 0C31.2982 0 32 0.662966 32 1.48217V30.5178C31.9996 31.337 31.2982 32 30.4318 32Z" fill="#205549"/>
</svg>
